<?xml version="1.0" encoding="UTF-8"?>
<!DOCTYPE svg PUBLIC "-//W3C//DTD SVG 1.1//EN" "http://www.w3.org/Graphics/SVG/1.1/DTD/svg11.dtd">
<!-- Creator: CorelDRAW X7 -->
<svg xmlns="http://www.w3.org/2000/svg" xml:space="preserve" width="6.66666in" height="6.66666in" version="1.1" style="shape-rendering:geometricPrecision; text-rendering:geometricPrecision; image-rendering:optimizeQuality; fill-rule:evenodd; clip-rule:evenodd"
viewBox="0 0 6667 6667"
 xmlns:xlink="http://www.w3.org/1999/xlink">
 <defs>
  <style type="text/css">
   <![CDATA[
    .fil6 {fill:none}
    .fil8 {fill:#080085}
    .fil9 {fill:#0A0057}
    .fil10 {fill:#0A0057}
    .fil3 {fill:#0E0563}
    .fil2 {fill:#91B3FA}
    .fil1 {fill:#BED0FD}
    .fil0 {fill:#E8EEFE}
    .fil5 {fill:#FB7E7C}
    .fil4 {fill:#FE7062}
    .fil7 {fill:#FFB1AF}
    .fil11 {fill:white}
    .fil12 {fill:white;fill-rule:nonzero}
   ]]>
  </style>
    <clipPath id="id0">
     <path d="M2481 2399l2211 46c128,3 135,65 135,106l-9 1200c0,70 -25,104 -66,103l-2291 -8c-40,0 -74,-34 -74,-74l-7 -1261c0,-41 60,-113 101,-112z"/>
    </clipPath>
 </defs>
 <g id="Layer_x0020_1">
  <metadata id="CorelCorpID_0Corel-Layer"/>
  <g id="_2934873302528">
   <circle class="fil0" cx="3344" cy="3333" r="1570"/>
   <g>
    <path class="fil1" d="M2404 2806c-22,0 -15,-185 -361,-176 -345,8 -283,61 -283,61 0,0 132,97 187,269 55,171 468,336 468,336l-11 -490z"/>
    <path class="fil2" d="M2342 2988c0,0 -162,-286 -428,-264 0,0 253,-4 422,293l6 -29z"/>
   </g>
   <g>
    <path class="fil2" d="M2384 3198c0,0 -180,-157 -378,10 -198,167 -240,136 -240,136 0,0 -46,40 75,134 121,95 361,18 361,18 0,0 159,-24 233,35 74,59 -51,-333 -51,-333z"/>
    <path class="fil0" d="M2356 3252c-7,15 -126,-44 -273,70 0,0 202,-71 270,-33 69,39 3,-37 3,-37z"/>
   </g>
   <g>
    <path class="fil2" d="M2642 2456c0,0 79,-457 -682,-616 0,0 -71,-24 -68,11 2,35 13,502 13,502 0,0 11,191 94,303 84,112 528,229 528,229l115 -429z"/>
    <path class="fil0" d="M2393 2412c-22,-23 -229,-383 -347,-453 0,0 298,375 316,488 18,114 31,-35 31,-35z"/>
   </g>
   <path class="fil3" d="M2437 2355l2337 46c50,1 105,64 109,113 32,493 39,948 28,1365 -2,49 -34,99 -84,99l-2423 0c-50,0 -90,-41 -90,-91l0 -1396c0,-49 73,-137 123,-136z"/>
   <path class="fil4" d="M2481 2399l2211 46c128,3 135,65 135,106l-9 1200c0,70 -25,104 -66,103l-2291 -8c-40,0 -74,-34 -74,-74l-7 -1261c0,-41 60,-113 101,-112z"/>
   <g style="clip-path:url(#id0)">
    <g>
     <polygon id="1" class="fil5" points="2381,2688 4810,2688 4810,3887 2381,3887 "/>
    </g>
   </g>
   <path class="fil6" d="M2481 2399l2211 46c128,3 135,65 135,106l-9 1200c0,70 -25,104 -66,103l-2291 -8c-40,0 -74,-34 -74,-74l-7 -1261c0,-41 60,-113 101,-112z"/>
   <rect class="fil7" x="2452" y="2733" width="1473" height="572" rx="87" ry="84"/>
   <rect class="fil7" x="4014" y="2733" width="752" height="572" rx="44" ry="84"/>
   <rect class="fil7" x="2457" y="3373" width="2289" height="391" rx="135" ry="58"/>
   <path class="fil8" d="M1928 3589c261,0 518,1 770,2 247,0 490,1 729,1 88,1 161,74 162,162 2,132 3,264 5,395 1,132 3,264 4,395 1,89 -70,164 -158,168 -239,9 -482,18 -729,27 -252,10 -509,20 -769,30 -99,4 -181,-71 -182,-165 -1,-141 -3,-281 -4,-422 -2,-140 -3,-281 -5,-421 -1,-95 79,-172 177,-172z"/>
   <path class="fil9" d="M2206 3729c222,0 439,0 652,0 207,0 411,0 610,0 0,141 0,281 0,422 0,141 0,282 0,422 -200,10 -404,19 -613,28 -213,10 -431,20 -653,30 0,-151 1,-301 2,-452 1,-150 1,-300 2,-450z"/>
   <rect class="fil9" x="1890" y="3729" width="180" height="262"/>
   <rect class="fil9" x="1890" y="4353" width="180" height="262"/>
   <path class="fil10" d="M1973 4036c72,0 131,58 131,131 0,72 -59,131 -131,131 -72,0 -131,-59 -131,-131 0,-73 59,-131 131,-131zm0 50c45,0 81,36 81,81 0,44 -36,81 -81,81 -45,0 -81,-37 -81,-81 0,-45 36,-81 81,-81z"/>
   <g>
    <path class="fil11" d="M2562 4409c0,0 -67,154 -95,210l-243 11c-14,0 -22,1 -22,1l0 -428 45 -46 315 252z"/>
    <polygon class="fil11" points="2358,4055 2644,4279 2576,4369 2279,4129 "/>
    <path class="fil11" d="M2393 4030l255 209 44 -48c0,0 -255,-191 -255,-202 0,-11 -44,41 -44,41z"/>
    <polygon class="fil11" points="2435,3753 2433,3936 2727,4171 2905,4134 3116,3417 2707,3947 2668,3945 2664,3901 3090,3399 "/>
   </g>
   <g>
    <g>
     <path class="fil12" d="M4047 3404l-62 -58 57 -62 63 58 -58 62zm-511 168l0 -17 0 0 19 0 18 -1 18 -1 17 -2 18 -2 18 -2 18 -3 17 -4 17 -4 18 -4 17 -5 17 -5 17 -6 16 -6 17 -6 16 -7 16 -7 16 -8 16 -8 16 -9 15 -9 15 -9 15 -10 15 -10 14 -10 14 -11 14 -12 14 -11 13 -12 13 -13 13 -12 13 -14 12 12 -13 13 -13 13 -13 13 -14 12 -14 12 -14 12 -15 11 -15 11 -15 10 -15 10 -15 10 -16 9 -16 9 -16 8 -16 8 -17 7 -17 7 -17 7 -17 6 -17 6 -17 5 -18 5 -18 5 -17 4 -18 3 -18 3 -19 3 -18 2 -18 2 -19 1 -18 1 -19 0 0 0zm-709 -710l16 0 0 0 1 36 3 35 4 35 6 34 8 33 10 33 10 32 13 32 14 31 15 29 17 29 18 29 19 27 21 26 21 25 23 24 24 23 26 22 26 20 27 20 28 18 29 16 30 16 31 14 31 12 32 11 33 9 34 8 34 6 35 5 35 2 35 1 0 17 -36 -1 -36 -3 -36 -4 -35 -7 -34 -8 -34 -9 -33 -11 -32 -13 -31 -14 -31 -16 -30 -17 -28 -18 -28 -20 -27 -21 -26 -23 -24 -23 -24 -25 -22 -25 -21 -27 -20 -28 -19 -29 -17 -30 -15 -30 -15 -32 -12 -32 -11 -33 -10 -34 -8 -34 -6 -35 -5 -35 -2 -36 -1 -37 0 0zm152 -439l13 10 -9 12 -9 12 -8 11 -8 12 -8 13 -8 12 -7 12 -7 13 -7 13 -6 13 -6 13 -6 13 -6 13 -5 13 -6 14 -4 13 -5 14 -4 14 -4 13 -4 14 -3 14 -4 14 -2 14 -3 15 -2 14 -2 14 -2 15 -1 14 -1 14 -1 15 0 14 -1 15 -16 0 0 -15 0 -15 1 -15 1 -14 2 -15 1 -15 2 -15 3 -14 2 -15 3 -14 3 -15 4 -14 4 -14 4 -14 4 -14 5 -14 5 -14 5 -14 6 -14 5 -13 6 -14 7 -13 7 -13 6 -13 8 -13 7 -13 8 -12 8 -13 8 -12 9 -12 9 -12 9 -12zm-58 20l52 -67 67 53 -52 67 -67 -53z"/>
    </g>
    <g>
     <path class="fil12" d="M2607 2950l2 1 1 2 2 2 2 2 1 2 2 2 1 2 1 2 1 2 1 2 1 2 1 3 0 2 1 2 0 3 0 2 1 2 0 3 0 2 -1 2 0 3 0 2 -1 2 0 3 -1 2 -1 2 -1 2 -1 3 -1 2 -1 2 -2 2 -1 2 0 0 -2 2 -2 2 -2 1 -1 2 -2 1 -2 2 -2 1 -3 1 -2 1 -2 1 -2 1 -2 1 -3 0 -2 1 -2 0 -3 1 -2 0 -2 0 -3 0 -2 0 -2 -1 -3 0 -2 0 -2 -1 -3 -1 -2 -1 -2 -1 -2 -1 -2 -1 -3 -1 -2 -2 -2 -1 0 0 -2 -2 -1 -2 -2 -1 -2 -2 -1 -2 -1 -2 -2 -2 -1 -2 -1 -2 -1 -3 -1 -2 -1 -2 0 -2 -1 -3 0 -2 0 -2 -1 -3 0 -2 0 -2 1 -3 0 -2 0 -2 1 -3 0 -2 1 -2 1 -3 1 -2 1 -2 1 -2 2 -2 1 -2 2 -2 0 0 1 -2 2 -2 2 -2 2 -1 1 -2 2 -1 3 -2 2 -1 2 -1 2 -1 2 -1 2 0 3 -1 2 0 2 -1 3 0 2 0 2 0 3 0 2 0 2 0 3 0 2 1 2 1 3 0 2 1 2 1 2 1 3 1 2 2 2 1 2 2 0 0zm995 889l-1032 -845 11 -13 1031 845 -10 13zm36 -45l0 0 2 2 2 1 1 2 2 2 1 2 2 2 1 2 1 2 1 2 1 2 1 3 1 2 1 2 0 3 0 2 1 2 0 3 0 2 0 2 0 3 -1 2 0 2 0 3 -1 2 -1 2 -1 3 -1 2 -1 2 -1 2 -1 2 -2 2 -1 2 0 0 -2 2 -2 2 -1 2 -2 1 -2 2 -2 1 -2 1 -2 2 -2 1 -3 1 -2 0 -2 1 -2 1 -3 0 -2 1 -2 0 -3 0 -2 0 -2 0 -3 0 -2 0 -2 -1 -3 0 -2 -1 -2 0 -3 -1 -2 -1 -2 -1 -2 -2 -2 -1 -2 -1 -2 -2 0 0 -2 -1 -2 -2 -2 -2 -1 -2 -2 -2 -1 -2 -1 -2 -2 -2 -1 -2 -1 -2 -1 -2 0 -3 -1 -2 0 -2 -1 -3 0 -2 0 -2 0 -3 0 -2 0 -2 0 -3 1 -2 0 -2 1 -3 0 -2 1 -2 1 -3 1 -2 1 -2 2 -2 1 -2 2 -2 0 0 1 -2 2 -2 2 -1 2 -2 2 -2 2 -1 2 -1 2 -1 2 -1 2 -1 2 -1 3 -1 2 -1 2 0 3 0 2 -1 2 0 3 0 2 0 2 0 3 0 2 1 2 0 3 1 2 1 2 1 3 1 2 1 2 1 2 1 2 2 2 1z"/>
    </g>
   </g>
  </g>
 </g>
</svg>
